<svg id="Layer_1" data-name="Layer 1" xmlns="http://www.w3.org/2000/svg" viewBox="0 0 567.65 567.17"><defs><style>.cls-1{isolation:isolate;}.cls-2{fill:#303206;}.cls-3{fill:#202104;}.cls-4{fill:#2b2d06;}.cls-5{fill:#424509;}.cls-6{fill:#3b3e08;}.cls-7{fill:#1f2004;}.cls-8{fill:#262805;}.cls-9{fill:#282a05;}.cls-10{fill:#282905;}.cls-11{fill:#272905;}.cls-12{fill:#323407;}.cls-13{fill:#292a05;}.cls-14{fill:#1e2004;}.cls-15{fill:#1a1b04;}.cls-16{fill:#191a04;}.cls-17{fill:#3b3d08;}.cls-18{fill:#282a06;}.cls-19{fill:#171803;}.cls-20{fill:#272805;}.cls-21{fill:#161703;}.cls-22{fill:#1b1d04;}.cls-23{fill:#1d1f04;}.cls-24{fill:#6c820e;}.cls-25{fill:#414e09;}.cls-26{fill:#404d09;}.cls-27{fill:#2f3906;}.cls-28{fill:#252d05;}.cls-29{fill:#3d4908;}.cls-30{fill:#49580a;}.cls-31{fill:#425109;}.cls-32{fill:#3c4808;}.cls-33{fill:#2f3a06;}.cls-34{fill:#70860f;}.cls-35{fill:#354007;}.cls-36{fill:#343f07;}.cls-37{fill:#586a0c;}.cls-38{fill:#303a07;}.cls-39{fill:#4b5a0a;}.cls-40{fill:#2c3506;}.cls-41{fill:#435109;}.cls-42{fill:#262e05;}.cls-43{fill:#313b07;}.cls-44{fill:#424f09;}.cls-45{fill:#3c4908;}.cls-46{fill:#485609;}.cls-47{fill:#293106;}.cls-48{fill:#2a3306;}</style></defs><title>frame</title><g class="cls-1"><polygon class="cls-2" points="98.14 471.23 98.94 470.95 379.5 471.3 380.39 471.58 98.14 471.23"/><polygon class="cls-3" points="98.14 469.53 98.95 469.26 376.96 469.61 377.85 469.88 98.14 469.53"/><polygon class="cls-4" points="98.14 469.53 377.85 469.88 380.39 471.58 98.14 471.23 98.14 469.53"/><polygon class="cls-5" points="85.45 367.21 98.41 380.22 98.14 469.53 98.14 471.23 380.39 471.58 367.38 484.55 85.11 484.21 85.45 367.21"/><polygon class="cls-6" points="85.45 367.21 86.34 367.56 99.21 380.49 98.41 380.22 85.45 367.21"/><polygon class="cls-7" points="82.91 365.51 83.81 365.87 86.34 367.56 85.45 367.21 82.91 365.51"/><polygon class="cls-8" points="82.91 365.51 85.45 367.21 85.11 484.21 82.57 482.51 82.91 365.51"/></g><g class="cls-1"><polygon class="cls-9" points="84.8 348.33 85.15 347.56 98.02 360.47 97.75 361.31 84.8 348.33"/><polygon class="cls-10" points="82.25 346.62 82.61 345.87 85.15 347.56 84.8 348.33 82.25 346.62"/><polygon class="cls-8" points="82.25 346.62 84.8 348.33 97.75 361.31 95.2 359.61 82.25 346.62"/><polygon class="cls-11" points="189.47 97.55 189.18 98.3 98.79 98.19 98.52 97.44 189.47 97.55"/><polygon class="cls-12" points="98.52 97.44 98.79 98.19 98.02 360.47 97.75 361.31 98.52 97.44"/><polygon class="cls-13" points="202.49 84.57 202.13 85.4 189.18 98.3 189.47 97.55 202.49 84.57"/><polygon class="cls-14" points="85.57 84.44 85.92 85.27 85.15 347.56 84.8 348.33 85.57 84.44"/><polygon class="cls-15" points="202.49 84.57 202.13 85.4 85.92 85.27 85.57 84.44 202.49 84.57"/><polygon class="cls-5" points="85.57 84.44 202.49 84.57 189.47 97.55 98.52 97.44 97.75 361.31 84.8 348.33 85.57 84.44"/><polygon class="cls-16" points="85.57 84.44 85.92 85.27 83.38 83.57 83.03 82.73 85.57 84.44"/><polygon class="cls-8" points="83.03 82.73 85.57 84.44 84.8 348.33 82.25 346.62 83.03 82.73"/><polygon class="cls-4" points="83.03 82.73 199.95 82.87 202.49 84.57 85.57 84.44 83.03 82.73"/></g><g class="cls-1"><polygon class="cls-17" points="380.73 471.29 381 470.53 471.38 470.65 471.66 471.41 380.73 471.29"/><polygon class="cls-10" points="367.69 484.27 368.04 483.43 381 470.53 380.73 471.29 367.69 484.27"/><polygon class="cls-18" points="469.12 469.71 468.85 468.96 471.38 470.65 471.66 471.41 469.12 469.71"/><polygon class="cls-11" points="378.18 469.59 378.46 468.84 381 470.53 380.73 471.29 378.18 469.59"/><polygon class="cls-19" points="365.16 482.57 365.52 481.74 378.46 468.84 378.18 469.59 365.16 482.57"/><polygon class="cls-8" points="378.18 469.59 380.73 471.29 367.69 484.27 365.16 482.57 378.18 469.59"/><polygon class="cls-20" points="378.18 469.59 378.46 468.84 468.85 468.96 469.12 469.71 378.18 469.59"/><polygon class="cls-4" points="378.18 469.59 469.12 469.71 471.66 471.41 380.73 471.29 378.18 469.59"/><polygon class="cls-5" points="472.44 207.33 485.39 220.34 484.61 484.42 367.69 484.27 380.73 471.29 471.66 471.41 472.44 207.33"/><polygon class="cls-8" points="471.66 471.41 471.38 470.65 472.15 208.16 472.44 207.33 471.66 471.41"/><polygon class="cls-8" points="469.89 205.63 472.44 207.33 471.66 471.41 469.12 469.71 469.89 205.63"/><polygon class="cls-21" points="469.12 469.71 468.85 468.96 469.62 206.47 469.89 205.63 469.12 469.71"/></g><g class="cls-1"><polygon class="cls-8" points="484.74 201.54 483.9 201.18 471.03 188.26 471.79 188.54 484.74 201.54"/><polygon class="cls-21" points="484.74 201.54 483.9 201.18 481.37 199.48 482.19 199.83 484.74 201.54"/><polygon class="cls-21" points="471.79 188.54 471.03 188.26 468.5 186.56 469.25 186.83 471.79 188.54"/><polygon class="cls-21" points="482.19 199.83 481.37 199.48 468.5 186.56 469.25 186.83 482.19 199.83"/><polygon class="cls-8" points="469.25 186.83 471.79 188.54 484.74 201.54 482.19 199.83 469.25 186.83"/><polygon class="cls-8" points="472.06 97.6 471.29 97.86 468.76 97.86 469.51 97.59 472.06 97.6"/><polygon class="cls-8" points="469.51 97.59 472.06 97.6 471.79 188.54 469.25 186.83 469.51 97.59"/><polygon class="cls-8" points="469.51 97.59 468.76 97.86 209 97.55 208.17 97.28 469.51 97.59"/><polygon class="cls-22" points="221.2 84.3 221.95 84.65 209 97.55 208.17 97.28 221.2 84.3"/><polygon class="cls-16" points="485.09 84.63 484.25 84.97 221.95 84.65 221.2 84.3 485.09 84.63"/><polygon class="cls-5" points="221.2 84.3 485.09 84.63 484.74 201.54 471.79 188.54 472.06 97.6 469.51 97.59 208.17 97.28 221.2 84.3"/><polygon class="cls-23" points="218.66 82.6 219.42 82.96 221.95 84.65 221.2 84.3 218.66 82.6"/><polygon class="cls-4" points="218.66 82.6 482.54 82.93 485.09 84.63 221.2 84.3 218.66 82.6"/><polygon class="cls-8" points="218.66 82.6 221.2 84.3 208.17 97.28 205.63 95.58 218.66 82.6"/></g><g class="cls-1"><polygon class="cls-24" points="282.8 546.65 283.08 546.15 285.18 548.26 284.91 548.77 282.8 546.65"/><polygon class="cls-25" points="284.91 548.77 285.18 548.26 349.35 484.32 349.47 484.44 284.91 548.77"/><polygon class="cls-26" points="202.36 484.26 203.12 484.14 285.13 566.55 284.86 567.17 202.36 484.26"/><polygon class="cls-27" points="346.92 482.74 346.82 482.63 349.35 484.32 349.47 484.44 346.92 482.74"/><polygon class="cls-26" points="346.92 482.74 349.47 484.44 284.91 548.77 282.8 546.65 346.92 482.74"/><polygon class="cls-28" points="282.8 546.65 283.08 546.15 346.82 482.63 346.92 482.74 282.8 546.65"/><polygon class="cls-26" points="199.82 482.56 202.36 484.26 284.86 567.17 282.32 565.47 199.82 482.56"/><polygon class="cls-29" points="199.82 482.56 200.6 482.45 203.12 484.14 202.36 484.26 199.82 482.56"/><polygon class="cls-25" points="349.47 484.44 349.35 484.32 362.3 471.41 362.5 471.46 349.47 484.44"/><polygon class="cls-24" points="207.78 471.27 208.52 471.22 283.08 546.15 282.8 546.65 207.78 471.27"/><polygon class="cls-26" points="189.41 471.25 190.26 471.2 203.12 484.14 202.36 484.26 189.41 471.25"/><polygon class="cls-30" points="189.41 471.25 190.26 471.2 208.52 471.22 207.78 471.27 189.41 471.25"/><polygon class="cls-28" points="346.92 482.74 346.82 482.63 359.77 469.72 359.95 469.75 346.92 482.74"/><polygon class="cls-28" points="362.5 471.46 362.3 471.41 359.77 469.72 359.95 469.75 362.5 471.46"/><polygon class="cls-25" points="362.5 471.46 362.3 471.41 471.35 362.74 472.21 362.12 362.5 471.46"/><polygon class="cls-26" points="359.95 469.75 362.5 471.46 349.47 484.44 346.92 482.74 359.95 469.75"/><polygon class="cls-31" points="205.24 469.57 205.99 469.53 208.52 471.22 207.78 471.27 205.24 469.57"/><polygon class="cls-32" points="186.87 469.55 187.73 469.51 190.26 471.2 189.41 471.25 186.87 469.55"/><polygon class="cls-30" points="186.87 469.55 205.24 469.57 207.78 471.27 189.41 471.25 186.87 469.55"/><polygon class="cls-26" points="186.87 469.55 189.41 471.25 202.36 484.26 199.82 482.56 186.87 469.55"/><polygon class="cls-33" points="186.87 469.55 187.73 469.51 205.99 469.53 205.24 469.57 186.87 469.55"/><polygon class="cls-34" points="472.21 362.12 472.16 380.52 380.88 471.48 284.86 567.17 202.36 484.26 189.41 471.25 207.78 471.27 282.8 546.65 284.91 548.77 349.47 484.44 362.5 471.46 472.21 362.12"/><polygon class="cls-26" points="469.67 360.42 472.21 362.12 362.5 471.46 359.95 469.75 469.67 360.42"/><polygon class="cls-28" points="359.95 469.75 359.77 469.72 468.82 361.05 469.67 360.42 359.95 469.75"/></g><g class="cls-1"><polygon class="cls-35" points="97.98 380.26 98.02 379.99 188.21 470.63 188.72 471.45 97.98 380.26"/><polygon class="cls-35" points="95.44 378.56 95.48 378.3 98.02 379.99 97.98 380.26 95.44 378.56"/><polygon class="cls-26" points="95.44 378.56 97.98 380.26 188.72 471.45 186.17 469.75 95.44 378.56"/><polygon class="cls-35" points="85.02 367.24 85.14 367.05 98.02 379.99 97.98 380.26 85.02 367.24"/><polygon class="cls-36" points="82.48 365.54 82.6 365.36 85.14 367.05 85.02 367.24 82.48 365.54"/><polygon class="cls-26" points="82.48 365.54 85.02 367.24 97.98 380.26 95.44 378.56 82.48 365.54"/><polygon class="cls-37" points="20.92 284.37 21.41 284.68 206.47 470.65 207.1 471.47 20.92 284.37"/><polygon class="cls-35" points="2.54 284.35 3.15 284.66 85.14 367.05 85.02 367.24 2.54 284.35"/><polygon class="cls-38" points="0 282.64 0.63 282.96 3.15 284.66 2.54 284.35 0 282.64"/><polygon class="cls-26" points="0 282.64 2.54 284.35 85.02 367.24 82.48 365.54 0 282.64"/><polygon class="cls-39" points="85.45 220.04 85.56 220.74 21.41 284.68 20.92 284.37 85.45 220.04"/><polygon class="cls-40" points="85.51 201.66 85.62 202.47 3.15 284.66 2.54 284.35 85.51 201.66"/><polygon class="cls-34" points="85.51 201.66 85.45 220.04 20.92 284.37 207.1 471.47 188.72 471.45 97.98 380.26 85.02 367.24 2.54 284.35 85.51 201.66"/><polygon class="cls-26" points="82.97 199.95 85.51 201.66 2.54 284.35 0 282.64 82.97 199.95"/></g><g class="cls-1"><polygon class="cls-26" points="95.47 186.67 98.02 188.37 97.97 206.76 95.42 205.06 95.47 186.67"/><polygon class="cls-41" points="95.47 186.67 96.29 186.17 98.83 187.86 98.02 188.37 95.47 186.67"/><polygon class="cls-42" points="189.3 97.39 189.55 97.42 98.83 187.86 98.02 188.37 189.3 97.39"/><polygon class="cls-42" points="285.32 1.7 284.99 2.31 189.55 97.42 189.3 97.39 285.32 1.7"/><polygon class="cls-43" points="186.75 95.69 187.02 95.73 189.55 97.42 189.3 97.39 186.75 95.69"/><polygon class="cls-26" points="186.75 95.69 189.3 97.39 98.02 188.37 95.47 186.67 186.75 95.69"/><polygon class="cls-25" points="367.8 84.6 366.98 84.71 348.7 84.69 349.42 84.58 367.8 84.6"/><polygon class="cls-25" points="349.42 84.58 348.7 84.69 284.93 20.61 285.25 20.11 349.42 84.58"/><polygon class="cls-28" points="349.42 84.58 348.7 84.69 346.17 83 346.87 82.87 349.42 84.58"/><polygon class="cls-44" points="285.25 20.11 284.93 20.61 98.77 206.13 97.97 206.76 285.25 20.11"/><polygon class="cls-28" points="346.87 82.87 346.17 83 284.51 21.03 284.83 20.53 346.87 82.87"/><polygon class="cls-26" points="285.25 20.11 349.42 84.58 346.87 82.87 284.83 20.53 285.25 20.11"/><polygon class="cls-34" points="285.32 1.7 367.8 84.6 349.42 84.58 285.25 20.11 97.97 206.76 98.02 188.37 189.3 97.39 285.32 1.7"/><polygon class="cls-26" points="282.77 0 285.32 1.7 189.3 97.39 186.75 95.69 282.77 0"/></g><g class="cls-1"><polygon class="cls-45" points="482.18 347.11 482.07 346.41 484.6 348.11 484.72 348.81 482.18 347.11"/><polygon class="cls-26" points="482.18 347.11 484.72 348.81 484.67 367.21 482.13 365.5 482.18 347.11"/><polygon class="cls-46" points="484.72 348.81 484.6 348.11 548.76 284.17 549.27 284.49 484.72 348.81"/><polygon class="cls-28" points="549.27 284.49 548.76 284.17 546.22 282.47 546.72 282.78 549.27 284.49"/><polygon class="cls-26" points="546.72 282.78 549.27 284.49 484.72 348.81 482.18 347.11 546.72 282.78"/><polygon class="cls-47" points="482.18 347.11 482.07 346.41 546.22 282.47 546.72 282.78 482.18 347.11"/><polygon class="cls-25" points="549.27 284.49 548.76 284.17 472.1 207.13 472.15 206.98 549.27 284.49"/><polygon class="cls-28" points="472.15 206.98 472.1 207.13 469.57 205.44 469.6 205.28 472.15 206.98"/><polygon class="cls-28" points="546.72 282.78 546.22 282.47 469.57 205.44 469.6 205.28 546.72 282.78"/><polygon class="cls-26" points="469.6 205.28 472.15 206.98 549.27 284.49 546.72 282.78 469.6 205.28"/><polygon class="cls-40" points="381.46 97.4 381.96 98.21 363.68 98.18 363.07 97.37 381.46 97.4"/><polygon class="cls-34" points="363.07 97.37 381.46 97.4 472.2 188.59 485.16 201.6 567.65 284.51 484.67 367.21 484.72 348.81 549.27 284.49 472.15 206.98 363.07 97.37"/><polygon class="cls-25" points="472.15 206.98 472.1 207.13 363.68 98.18 363.07 97.37 472.15 206.98"/><polygon class="cls-48" points="363.07 97.37 363.68 98.18 361.16 96.49 360.53 95.67 363.07 97.37"/><polygon class="cls-28" points="469.6 205.28 469.57 205.44 361.16 96.49 360.53 95.67 469.6 205.28"/><polygon class="cls-26" points="360.53 95.67 363.07 97.37 472.15 206.98 469.6 205.28 360.53 95.67"/><polygon class="cls-30" points="360.53 95.67 378.92 95.7 381.46 97.4 363.07 97.37 360.53 95.67"/></g></svg>